{"title":"D.E.B.S.","uid":5175186,"size":735438848,"categoryP":"video","categoryS":"movies","magnet":"?xt=urn:btih:867bed52db0166edb6b7015d0f683efb27626bf8&amp;dn=D.E.B.S.&amp;tr=udp%3A%2F%2Ftracker.openbittorrent.com%3A80&amp;tr=udp%3A%2F%2Fopen.demonii.com%3A1337&amp;tr=udp%3A%2F%2Ftracker.coppersurfer.tk%3A6969&amp;tr=udp%3A%2F%2Fexodus.desync.com%3A6969","seeders":0,"leechers":1,"uploader":"cliv333","files":1,"time":1258928315,"description":"D.E.B.S. {2004} - {DVDRip-XviD BY NoGrp}.avi\nGeneral\nComplete name : D.E.B.S. {2004} - {DVDRip-XviD BY NoGrp}.avi\nFormat : AVI\nFormat/Info : Audio Video Interleave\nFile size : 701 MiB\nDuration : 1h 31mn\nOverall bit rate : 1 070 Kbps\nWriting application : Nandub v1.0rc2\nWriting library : Nandub build 1852/release\nVideo\nFormat : MPEG-4 Visual\nFormat profile : Simple@L3\nFormat settings, BVOP : Yes\nFormat settings, QPel : No\nFormat settings, GMC : No warppoints\nFormat settings, Matrix : Default\nMuxing mode : Packed bitstream\nCodec ID : XVID\nCodec ID/Hint : XviD\nDuration : 1h 31mn\nBit rate : 902 Kbps\nWidth : 640 pixels\nHeight : 272 pixels\nDisplay aspect ratio : 2.35\nFrame rate : 23.976 fps\nResolution : 24 bits\nColorimetry : 4:2:0\nScan type : Progressive\nBits/(Pixel*Frame) : 0.216\nStream size : 591 MiB (84%)\nWriting library : XviD 1.1.0 Beta2 (UTC 2005-04-04)\nAudio\nFormat : MPEG Audio\nFormat version : Version 1\nFormat profile : Layer 3\nCodec ID : 55\nCodec ID/Hint : MP3\nDuration : 1h 31mn\nBit rate mode : Variable\nBit rate : 155 Kbps\nMinimum bit rate : 64.0 Kbps\nChannel(s) : 2 channels\nSampling rate : 48.0 KHz\nResolution : 16 bits\nStream size : 102 MiB (14%)\nAlignment : Aligned on interleaves\nInterleave, duration : 24 ms (0.58 video frame)\nInterleave, preload duration : 116 ms\nWriting library : LAME3.93\nEncoding settings : VBR (mtrh)","torrent":{"xt":"urn:btih:867bed52db0166edb6b7015d0f683efb27626bf8","amp;dn":"D.E.B.S.","amp;tr":["udp%3A%2F%2Ftracker.openbittorrent.com%3A80","udp%3A%2F%2Fopen.demonii.com%3A1337","udp%3A%2F%2Ftracker.coppersurfer.tk%3A6969","udp%3A%2F%2Fexodus.desync.com%3A6969"],"infoHash":"867bed52db0166edb6b7015d0f683efb27626bf8","infoHashBuffer":{"type":"Buffer","data":[134,123,237,82,219,1,102,237,182,183,1,93,15,104,62,251,39,98,107,248]},"announce":[],"urlList":[]}}